<?xml version="1.0" encoding="UTF-8"?>
<svg width="137px" height="34px" viewBox="0 0 137 34" version="1.1" xmlns="http://www.w3.org/2000/svg" xmlns:xlink="http://www.w3.org/1999/xlink">
    <title>Logo/Color</title>
    <defs>
        <radialGradient cx="68.2953372%" cy="44.7207562%" fx="68.2953372%" fy="44.7207562%" r="103.901932%" gradientTransform="translate(0.682953,0.447208),scale(0.790698,1.000000),rotate(175.459690),scale(1.000000,1.041552),translate(-0.682953,-0.447208)" id="radialGradient-1">
            <stop stop-color="#B2FEFA" offset="0%"></stop>
            <stop stop-color="#0ED2F7" offset="100%"></stop>
        </radialGradient>
        <path d="M72.1180446,30.1519467 C69.7112236,32.9216739 65.0230161,34.1511109 60.9677281,33.9738216 C56.9147203,33.8243349 53.5266981,32.2941486 50.3832258,32.2860025 C47.2420337,32.305659 44.3133256,33.8213289 41.0941766,33.9853262 C37.8750276,34.1493235 34.3631576,32.9338457 32.5838583,30.5813396 C30.804559,28.2288335 30.8196821,24.7635501 31.2195966,21.6105868 C31.6515771,18.4836503 32.4981346,15.6672581 33.5395123,12.6716188 C34.5511041,9.67775537 35.7850216,6.47506624 38.2028105,4.93398185 C40.6205994,3.39289745 44.2795511,3.48206332 48.3490967,2.37332864 C52.4209225,1.29239657 56.901062,-1.01423867 59.1503826,0.500024906 C61.3997032,2.01428848 61.3563531,7.3252001 63.5704622,10.9648939 C65.7868514,14.6323903 70.2606997,16.6286688 72.4383269,19.8235207 C74.615954,23.0183727 74.5225855,27.3544169 72.1180446,30.1519467 Z" id="path-2"></path>
    </defs>
    <g id="Page-1" stroke="none" stroke-width="1" fill="none" fill-rule="evenodd">
        <g id="Logo" transform="translate(-79.000000, -201.000000)">
            <g id="Group" transform="translate(79.000000, 201.000000)">
                <mask id="mask-3" fill="white">
                    <use xlink:href="#path-2"></use>
                </mask>
                <use id="Mask" fill="url(#radialGradient-1)" fill-rule="nonzero" xlink:href="#path-2"></use>
                <g id="Group-3" transform="translate(41.000000, 5.000000)" fill="#4D1483" fill-rule="nonzero">
                    <path d="M20.3595418,7.64652029 C23.213844,12.8196119 22.2047904,19.7523053 18.4074102,22.8273328 C17.9304239,23.210624 17.4101592,23.5337751 16.8575931,23.8012332 L16.7122616,23.8683082 C15.6718095,24.1081907 15.1279112,23.4069807 14.470327,21.9756029 L14.4592342,21.950072 C14.0957852,21.0698278 13.7415905,20.2155199 13.39665,19.3871482 C12.8194399,18.0009832 12.9124935,17.3467174 13.4511902,16.8431299 C13.4794551,16.8167071 13.5007433,16.7943713 13.5150548,16.7761224 C14.7811345,15.9225934 15.5696908,14.514292 15.4814626,12.9612783 C15.4004663,11.536397 14.5992445,10.3038165 13.420186,9.54784614 L13.3307262,7.94727379 C13.3021502,7.43833135 12.8975646,7.03913365 12.4008851,7.00559597 L12.2847612,7.004464 L7.9182912,7.21227041 C7.39834849,7.24143027 6.9974179,7.65058751 6.96758389,8.15038448 L6.96740138,8.26719952 L7.07780213,10.2334466 C7.07805062,10.2378721 7.07832754,10.2422894 7.0786327,10.2466983 C6.26775529,11.0874731 5.80150815,12.2124693 5.87043843,13.425796 C5.96022391,15.0052965 6.93502448,16.3484973 8.32845714,17.0681278 C8.33586136,17.0800281 8.35431146,17.0955461 8.38362924,17.1144409 L8.43573438,17.1452856 C9.04468191,17.4822372 9.31148547,18.0295445 9.18274577,19.2796684 L8.9758539,20.8028469 C8.93185017,21.1095966 8.88784645,21.4117696 8.84384273,21.7093658 L8.84964361,21.6962153 C8.82005429,21.900466 8.79046497,22.1026474 8.76087565,22.3027592 L8.775,22.27 L8.7453731,22.4879853 C8.54720464,23.4773234 8.22820766,24.0569645 7.22678312,23.9955634 L7.07325781,23.9817368 C6.9527421,23.9676249 6.8638096,23.9606303 6.80646032,23.9607531 C5.87739005,23.6347869 5.0170087,23.2269903 4.2704785,22.7564049 C0.535144023,20.4017859 -0.340697456,16.5008794 0.107108904,11.7234561 C0.545525638,6.96302761 2.30759021,1.32608232 6.5381963,0.210005559 C10.7873128,-0.897373237 17.49585,2.49042361 20.3595418,7.64652029 Z M10.4032556,20.0075597 C10.618445,19.9971592 10.8020328,20.1496058 10.8133104,20.3480586 C10.824588,20.5465114 10.6592848,20.7158204 10.4440954,20.7262209 C10.2289061,20.7366214 10.0453183,20.5841748 10.0340407,20.385722 C10.0227631,20.1872692 10.1880663,20.0179602 10.4032556,20.0075597 Z M12.0686454,19.9259556 C12.2838348,19.9155551 12.4674225,20.0680017 12.4787001,20.2664545 C12.4899777,20.4649073 12.3246746,20.6342163 12.1094852,20.6446168 C11.8942958,20.6550173 11.7107081,20.5025707 11.6994305,20.3041179 C11.6881529,20.1056651 11.8534561,19.936356 12.0686454,19.9259556 Z M10.2739296,18.2115641 C10.489119,18.2011636 10.6727068,18.3536102 10.6839844,18.552063 C10.695262,18.7505158 10.5299588,18.9198249 10.3147694,18.9302253 C10.0995801,18.9406258 9.91599232,18.7881793 9.90471472,18.5897264 C9.89343712,18.3912736 10.0587403,18.2219646 10.2739296,18.2115641 Z M11.9393194,18.12996 C12.1545088,18.1195595 12.3380965,18.2720061 12.3493741,18.4704589 C12.3606517,18.6689117 12.1953486,18.8382208 11.9801592,18.8486212 C11.7649698,18.8590217 11.5813821,18.7065751 11.5701045,18.5081223 C11.5588269,18.3096695 11.72413,18.1403605 11.9393194,18.12996 Z M12.9420142,12.8539741 L13.026475,12.8580671 C13.2478086,12.9572793 13.3724925,13.2535044 13.4005268,13.7467427 C13.4425641,14.4866007 12.3412934,15.0344202 11.8666508,15.2222249 C11.3920081,15.4100296 9.7740505,15.4057961 9.03405701,15.1942646 C8.29406351,14.9827332 8.26136236,14.4072883 8.49401208,14.2311796 C8.7266618,14.0550708 8.90887098,14.2730084 8.99668426,14.5366133 C9.49412528,14.812744 9.39062455,14.7704394 9.90267796,14.8225539 C10.2440469,14.8572969 10.6742565,14.8365041 11.1933068,14.7601756 C11.5726791,14.7010292 11.8368885,14.6058273 11.985935,14.4745699 C12.2095049,14.2776839 12.6219063,14.2789679 12.5798619,13.5391102 C12.5518324,13.0458718 12.7007034,12.8188574 13.026475,12.8580671 Z M9.31931108,11.8279324 C9.71382526,11.8088714 10.0504028,12.0883568 10.0710844,12.4521866 C10.091754,12.8160171 9.78869821,13.126417 9.39418471,13.1454911 C8.99967053,13.1645521 8.66309299,12.8850667 8.64241136,12.5212369 C8.6217418,12.1574064 8.92479758,11.8470065 9.31931108,11.8279324 Z M11.4864019,11.0025581 C11.8809161,10.9834971 12.2174936,11.2629825 12.2381753,11.6268123 C12.2588448,11.9906428 11.9557891,12.3010427 11.5612756,12.3201168 C11.1667614,12.3391778 10.8301838,12.0596924 10.8095022,11.6958626 C10.7888326,11.3320321 11.0918884,11.0216322 11.4864019,11.0025581 Z" id="Combined-Shape"></path>
                </g>
                <path d="M14.3820886,4 L21.7435872,25.818161 L16.075979,25.818161 L14.6377701,21.2371995 L7.10581709,21.2371995 L5.66760823,25.818161 L0,25.818161 L7.36149866,4 L14.3820886,4 Z M10.9516941,9.49715385 L10.7812397,9.49715385 L8.36291816,17.2315215 L13.3806691,17.2315215 L10.9516941,9.49715385 Z" id="Combined-Shape" fill="#4D1483" fill-rule="nonzero"></path>
                <polygon id="Path" fill="#4D1483" fill-rule="nonzero" points="29.2095121 25.818161 29.2095121 20.9069441 30.2641986 19.6285362 34.1633426 25.818161 40.182513 25.818161 34.1420358 16.5816641 39.9481382 9.45454025 34.0461552 9.45454025 29.4438869 15.3139097 29.2095121 15.3139097 29.2095121 4 24 4 24 25.818161"></polygon>
                <path d="M71.2095121,26.2840716 L71.2095121,16.6001319 C71.2095121,14.9808153 72.1576646,13.9474356 73.5212996,13.9474356 C74.8742813,13.9474356 75.7691668,14.8955881 75.7691668,16.4083708 L75.7691668,26.2840716 L80.7762643,26.2840716 L80.7762643,16.5149047 C80.7762643,14.9488551 81.6391896,13.9474356 83.0773985,13.9474356 C84.39842,13.9474356 85.3359191,14.8316677 85.3359191,16.4616378 L85.3359191,26.2840716 L90.5454311,26.2840716 L90.5454311,15.2684571 C90.5454311,11.8061024 88.4147514,9.70738283 85.3252657,9.70738283 C82.9069441,9.70738283 80.9999857,10.9751373 80.392742,12.9247093 L80.2222876,12.9247093 C79.7854982,10.9644839 78.0276874,9.70738283 75.7585134,9.70738283 C73.5212996,9.70738283 71.8167558,10.9325237 71.1349383,12.9247093 L70.9538305,12.9247093 L70.9538305,9.92045081 L66,9.92045081 L66,26.2840716 L71.2095121,26.2840716 Z" id="Path" fill="#4D1483" fill-rule="nonzero"></path>
                <path d="M100.132522,9.70738283 C104.298001,9.70738283 107.376833,11.6995684 107.376833,15.1619231 L107.376833,15.1619231 L107.376833,26.2840716 L102.476269,26.2840716 L102.476269,24.0042442 L102.348429,24.0042442 C101.453543,25.6768278 99.87684,26.5610599 97.5970126,26.5610599 C94.4649134,26.5610599 92.2170462,24.9843569 92.2170462,21.7457236 C92.2170462,18.123568 94.9869299,16.8984271 98.300137,16.6214387 C101.091327,16.3764106 102.177974,16.1633426 102.177974,15.1619231 L102.177974,15.1619231 L102.177974,15.1086561 C102.177974,14.011356 101.368316,13.3934589 100.089908,13.3934589 C98.7156195,13.3934589 97.8526942,14.0326628 97.6289728,15.0766959 L97.6289728,15.0766959 L92.8242899,14.9062415 C93.2397725,11.9232898 95.7326678,9.70738283 100.132522,9.70738283 Z M102.209934,18.9119195 C101.623997,19.2208681 100.430817,19.4339361 99.4613575,19.5724302 C97.980535,19.7961516 97.1495699,20.4353556 97.1495699,21.490042 C97.1495699,22.5766887 98.0018418,23.1519723 99.2056759,23.1519723 C100.867606,23.1519723 102.209934,22.0653256 102.209934,20.4673157 L102.209934,20.4673157 Z" id="Combined-Shape" fill="#4D1483" fill-rule="nonzero"></path>
                <path d="M116.623005,26.5184463 C117.880106,26.4545259 118.785645,26.1988444 119.286355,26.0496968 L118.498003,22.289047 C118.274282,22.342314 117.752265,22.4488479 117.358089,22.4488479 C116.516471,22.4488479 116.037068,22.1079392 116.037068,21.1384799 L116.037068,13.7556744 L118.988059,13.7556744 L118.988059,9.92045081 L116.037068,9.92045081 L116.037068,6 L110.827556,6 L110.827556,9.92045081 L108.664916,9.92045081 L108.664916,13.7556744 L110.827556,13.7556744 L110.827556,21.7137634 C110.795596,25.0269705 112.947582,26.6889007 116.623005,26.5184463 Z" id="Path" fill="#4D1483" fill-rule="nonzero"></path>
                <path d="M128.170305,9.70738283 C132.815187,9.70738283 136.096434,12.6690277 136.096434,18.0596476 L136.096434,18.0596476 L136.096434,19.3593623 L125.187354,19.3593623 L125.187354,19.4978564 C125.187354,21.5006954 126.423148,22.8323703 128.425987,22.8323703 C129.789622,22.8323703 130.854962,22.2464334 131.259791,21.1597867 L131.259791,21.1597867 L136.043167,21.2982809 C135.446577,24.5156073 132.623426,26.5930201 128.330106,26.5930201 C123.184515,26.5930201 120.052415,23.4076539 120.052415,18.1661816 C120.052415,13.0951637 123.227128,9.70738283 128.170305,9.70738283 Z M128.276839,13.4680327 C126.550989,13.4680327 125.261927,14.7038269 125.187354,16.333797 L125.187354,16.333797 L131.249138,16.333797 C131.227831,14.6612133 129.992037,13.4680327 128.276839,13.4680327 Z" id="Combined-Shape" fill="#4D1483" fill-rule="nonzero"></path>
            </g>
        </g>
    </g>
</svg>